<?xml version="1.0" encoding="UTF-8"?>
<!DOCTYPE svg PUBLIC "-//W3C//DTD SVG 1.1//EN" "http://www.w3.org/Graphics/SVG/1.1/DTD/svg11.dtd">
<svg width="214mm" height="138mm" viewBox="0 0 21400 13800" version="1.1" xmlns="http://www.w3.org/2000/svg" xmlns:xlink="http://www.w3.org/1999/xlink" stroke-width="28.222" stroke-linejoin="round" xml:space="preserve">
 <path fill="rgb(255,255,255)" stroke="none" d="M 10698,13827 L -9,13827 -9,-9 21404,-9 21404,13827 10698,13827 Z"/>
 <path fill="none" stroke="rgb(179,179,179)" stroke-linejoin="round" d="M 10242,11948 L 2176,11948 2176,1679 18307,1679 18307,11948 10242,11948 Z"/>
 <path fill="none" stroke="rgb(179,179,179)" stroke-linejoin="round" d="M 18307,11947 L 2176,11947"/>
 <path fill="none" stroke="rgb(179,179,179)" stroke-linejoin="round" d="M 18307,10920 L 2176,10920"/>
 <path fill="none" stroke="rgb(179,179,179)" stroke-linejoin="round" d="M 18307,9893 L 2176,9893"/>
 <path fill="none" stroke="rgb(179,179,179)" stroke-linejoin="round" d="M 18307,8866 L 2176,8866"/>
 <path fill="none" stroke="rgb(179,179,179)" stroke-linejoin="round" d="M 18307,7839 L 2176,7839"/>
 <path fill="none" stroke="rgb(179,179,179)" stroke-linejoin="round" d="M 18307,6813 L 2176,6813"/>
 <path fill="none" stroke="rgb(179,179,179)" stroke-linejoin="round" d="M 18307,5786 L 2176,5786"/>
 <path fill="none" stroke="rgb(179,179,179)" stroke-linejoin="round" d="M 18307,4759 L 2176,4759"/>
 <path fill="none" stroke="rgb(179,179,179)" stroke-linejoin="round" d="M 18307,3732 L 2176,3732"/>
 <path fill="none" stroke="rgb(179,179,179)" stroke-linejoin="round" d="M 18307,2705 L 2176,2705"/>
 <path fill="none" stroke="rgb(179,179,179)" stroke-linejoin="round" d="M 18307,1678 L 2176,1678"/>
 <path fill="none" stroke="rgb(179,179,179)" stroke-linejoin="round" d="M 2176,12097 L 2176,11947"/>
 <path fill="none" stroke="rgb(179,179,179)" stroke-linejoin="round" d="M 2176,12097 L 2176,11947"/>
 <path fill="none" stroke="rgb(179,179,179)" stroke-linejoin="round" d="M 3968,12097 L 3968,11947"/>
 <path fill="none" stroke="rgb(179,179,179)" stroke-linejoin="round" d="M 3968,12097 L 3968,11947"/>
 <path fill="none" stroke="rgb(179,179,179)" stroke-linejoin="round" d="M 5760,12097 L 5760,11947"/>
 <path fill="none" stroke="rgb(179,179,179)" stroke-linejoin="round" d="M 5760,12097 L 5760,11947"/>
 <path fill="none" stroke="rgb(179,179,179)" stroke-linejoin="round" d="M 7553,12097 L 7553,11947"/>
 <path fill="none" stroke="rgb(179,179,179)" stroke-linejoin="round" d="M 7553,12097 L 7553,11947"/>
 <path fill="none" stroke="rgb(179,179,179)" stroke-linejoin="round" d="M 9345,12097 L 9345,11947"/>
 <path fill="none" stroke="rgb(179,179,179)" stroke-linejoin="round" d="M 9345,12097 L 9345,11947"/>
 <path fill="none" stroke="rgb(179,179,179)" stroke-linejoin="round" d="M 11137,12097 L 11137,11947"/>
 <path fill="none" stroke="rgb(179,179,179)" stroke-linejoin="round" d="M 11137,12097 L 11137,11947"/>
 <path fill="none" stroke="rgb(179,179,179)" stroke-linejoin="round" d="M 12929,12097 L 12929,11947"/>
 <path fill="none" stroke="rgb(179,179,179)" stroke-linejoin="round" d="M 12929,12097 L 12929,11947"/>
 <path fill="none" stroke="rgb(179,179,179)" stroke-linejoin="round" d="M 14722,12097 L 14722,11947"/>
 <path fill="none" stroke="rgb(179,179,179)" stroke-linejoin="round" d="M 14722,12097 L 14722,11947"/>
 <path fill="none" stroke="rgb(179,179,179)" stroke-linejoin="round" d="M 16514,12097 L 16514,11947"/>
 <path fill="none" stroke="rgb(179,179,179)" stroke-linejoin="round" d="M 16514,12097 L 16514,11947"/>
 <path fill="none" stroke="rgb(179,179,179)" stroke-linejoin="round" d="M 18307,12097 L 18307,11947"/>
 <path fill="none" stroke="rgb(179,179,179)" stroke-linejoin="round" d="M 18307,12097 L 18307,11947"/>
 <path fill="none" stroke="rgb(179,179,179)" stroke-linejoin="round" d="M 2176,11947 L 18307,11947"/>
 <path fill="none" stroke="rgb(179,179,179)" stroke-linejoin="round" d="M 2026,11947 L 2176,11947"/>
 <path fill="none" stroke="rgb(179,179,179)" stroke-linejoin="round" d="M 2026,11947 L 2176,11947"/>
 <path fill="none" stroke="rgb(179,179,179)" stroke-linejoin="round" d="M 2026,10920 L 2176,10920"/>
 <path fill="none" stroke="rgb(179,179,179)" stroke-linejoin="round" d="M 2026,10920 L 2176,10920"/>
 <path fill="none" stroke="rgb(179,179,179)" stroke-linejoin="round" d="M 2026,9893 L 2176,9893"/>
 <path fill="none" stroke="rgb(179,179,179)" stroke-linejoin="round" d="M 2026,9893 L 2176,9893"/>
 <path fill="none" stroke="rgb(179,179,179)" stroke-linejoin="round" d="M 2026,8866 L 2176,8866"/>
 <path fill="none" stroke="rgb(179,179,179)" stroke-linejoin="round" d="M 2026,8866 L 2176,8866"/>
 <path fill="none" stroke="rgb(179,179,179)" stroke-linejoin="round" d="M 2026,7839 L 2176,7839"/>
 <path fill="none" stroke="rgb(179,179,179)" stroke-linejoin="round" d="M 2026,7839 L 2176,7839"/>
 <path fill="none" stroke="rgb(179,179,179)" stroke-linejoin="round" d="M 2026,6813 L 2176,6813"/>
 <path fill="none" stroke="rgb(179,179,179)" stroke-linejoin="round" d="M 2026,6813 L 2176,6813"/>
 <path fill="none" stroke="rgb(179,179,179)" stroke-linejoin="round" d="M 2026,5786 L 2176,5786"/>
 <path fill="none" stroke="rgb(179,179,179)" stroke-linejoin="round" d="M 2026,5786 L 2176,5786"/>
 <path fill="none" stroke="rgb(179,179,179)" stroke-linejoin="round" d="M 2026,4759 L 2176,4759"/>
 <path fill="none" stroke="rgb(179,179,179)" stroke-linejoin="round" d="M 2026,4759 L 2176,4759"/>
 <path fill="none" stroke="rgb(179,179,179)" stroke-linejoin="round" d="M 2026,3732 L 2176,3732"/>
 <path fill="none" stroke="rgb(179,179,179)" stroke-linejoin="round" d="M 2026,3732 L 2176,3732"/>
 <path fill="none" stroke="rgb(179,179,179)" stroke-linejoin="round" d="M 2026,2705 L 2176,2705"/>
 <path fill="none" stroke="rgb(179,179,179)" stroke-linejoin="round" d="M 2026,2705 L 2176,2705"/>
 <path fill="none" stroke="rgb(179,179,179)" stroke-linejoin="round" d="M 2026,1678 L 2176,1678"/>
 <path fill="none" stroke="rgb(179,179,179)" stroke-linejoin="round" d="M 2026,1678 L 2176,1678"/>
 <path fill="none" stroke="rgb(179,179,179)" stroke-linejoin="round" d="M 2176,11947 L 2176,1678"/>
 <path fill="none" stroke="rgb(255,66,14)" stroke-width="80" stroke-linejoin="round" d="M 3968,9893 L 17410,2191"/>
 <path fill="none" stroke="rgb(0,69,134)" stroke-width="80" stroke-linejoin="round" d="M 3968,11199 L 4058,11078 4147,10922 4237,10792 4326,10648 4416,10523 4506,10368 4595,10289 4685,10124 4775,9982 4864,9845 4954,9735 5043,9547 5133,9415 5223,9275 5312,9153 5402,9046 5492,8962 5581,8840 5671,8768 5760,8746 5850,8634 5940,8618 6029,8554 6119,8507 6209,8494 6298,8469 6388,8404 6477,8420 6567,8446 6657,8453 6746,8455 6836,8468 6925,8460 7015,8469 7105,8462 7194,8482 7284,8463 7374,8459 7463,8453 7553,8421 7642,8369 7732,8321 7822,8280 7911,8225 8001,8170 8091,8118 8180,8066 8270,8018 8359,7971 8449,7926 8539,7883 8628,7842 8718,7802 8808,7765 8897,7729 8987,7700 9076,7666 9166,7615 9256,7563 9345,7515 9435,7470 9525,7428 9614,7379 9704,7322 9793,7250 9883,7167 9973,7075 10062,6987 10152,6895 10242,6794 10331,6692 10421,6583 10510,6466 10600,6351 10690,6250 10778,6149 10868,6040 10957,5936 11047,5828 11137,5730 11226,5644 11316,5563 11406,5482 11495,5396 11585,5340 11674,5285 11764,5239 11854,5188 11943,5138 12033,5081 12123,5008 12212,4932 12302,4849 12391,4761 12481,4678 12571,4591 12660,4522 12750,4453 12840,4402 12929,4365 13019,4338 13108,4317 13198,4299 13288,4289 13377,4277 13467,4260 13557,4230 13646,4198 13736,4165 13825,4135 13915,4109 14005,4081 14094,4049 14184,4011 14274,3974 14363,3927 14453,3876 14542,3837 14632,3812 14722,3797 14811,3797 14901,3804"/>
 <text class="SVGTextShape"><tspan class="TextParagraph" font-family="Liberation Sans, sans-serif" font-size="353px" font-weight="400"><tspan class="TextPosition" x="1788" y="12515"><tspan fill="rgb(0,0,0)" stroke="none" style="white-space: pre">1880</tspan></tspan></tspan></text>
 <text class="SVGTextShape"><tspan class="TextParagraph" font-family="Liberation Sans, sans-serif" font-size="353px" font-weight="400"><tspan class="TextPosition" x="3580" y="12515"><tspan fill="rgb(0,0,0)" stroke="none" style="white-space: pre">1900</tspan></tspan></tspan></text>
 <text class="SVGTextShape"><tspan class="TextParagraph" font-family="Liberation Sans, sans-serif" font-size="353px" font-weight="400"><tspan class="TextPosition" x="5372" y="12515"><tspan fill="rgb(0,0,0)" stroke="none" style="white-space: pre">1920</tspan></tspan></tspan></text>
 <text class="SVGTextShape"><tspan class="TextParagraph" font-family="Liberation Sans, sans-serif" font-size="353px" font-weight="400"><tspan class="TextPosition" x="7165" y="12515"><tspan fill="rgb(0,0,0)" stroke="none" style="white-space: pre">1940</tspan></tspan></tspan></text>
 <text class="SVGTextShape"><tspan class="TextParagraph" font-family="Liberation Sans, sans-serif" font-size="353px" font-weight="400"><tspan class="TextPosition" x="8957" y="12515"><tspan fill="rgb(0,0,0)" stroke="none" style="white-space: pre">1960</tspan></tspan></tspan></text>
 <text class="SVGTextShape"><tspan class="TextParagraph" font-family="Liberation Sans, sans-serif" font-size="353px" font-weight="400"><tspan class="TextPosition" x="10750" y="12515"><tspan fill="rgb(0,0,0)" stroke="none" style="white-space: pre">1980</tspan></tspan></tspan></text>
 <text class="SVGTextShape"><tspan class="TextParagraph" font-family="Liberation Sans, sans-serif" font-size="353px" font-weight="400"><tspan class="TextPosition" x="12542" y="12515"><tspan fill="rgb(0,0,0)" stroke="none" style="white-space: pre">2000</tspan></tspan></tspan></text>
 <text class="SVGTextShape"><tspan class="TextParagraph" font-family="Liberation Sans, sans-serif" font-size="353px" font-weight="400"><tspan class="TextPosition" x="14335" y="12515"><tspan fill="rgb(0,0,0)" stroke="none" style="white-space: pre">2020</tspan></tspan></tspan></text>
 <text class="SVGTextShape"><tspan class="TextParagraph" font-family="Liberation Sans, sans-serif" font-size="353px" font-weight="400"><tspan class="TextPosition" x="16127" y="12515"><tspan fill="rgb(0,0,0)" stroke="none" style="white-space: pre">2040</tspan></tspan></tspan></text>
 <text class="SVGTextShape"><tspan class="TextParagraph" font-family="Liberation Sans, sans-serif" font-size="353px" font-weight="400"><tspan class="TextPosition" x="17920" y="12515"><tspan fill="rgb(0,0,0)" stroke="none" style="white-space: pre">2060</tspan></tspan></tspan></text>
 <text class="SVGTextShape"><tspan class="TextParagraph" font-family="Liberation Sans, sans-serif" font-size="353px" font-weight="400"><tspan class="TextPosition" x="1414" y="12072"><tspan fill="rgb(0,0,0)" stroke="none" style="white-space: pre">-10</tspan></tspan></tspan></text>
 <text class="SVGTextShape"><tspan class="TextParagraph" font-family="Liberation Sans, sans-serif" font-size="353px" font-weight="400"><tspan class="TextPosition" x="1732" y="11045"><tspan fill="rgb(0,0,0)" stroke="none" style="white-space: pre">0</tspan></tspan></tspan></text>
 <text class="SVGTextShape"><tspan class="TextParagraph" font-family="Liberation Sans, sans-serif" font-size="353px" font-weight="400"><tspan class="TextPosition" x="1538" y="10018"><tspan fill="rgb(0,0,0)" stroke="none" style="white-space: pre">10</tspan></tspan></tspan></text>
 <text class="SVGTextShape"><tspan class="TextParagraph" font-family="Liberation Sans, sans-serif" font-size="353px" font-weight="400"><tspan class="TextPosition" x="1538" y="8991"><tspan fill="rgb(0,0,0)" stroke="none" style="white-space: pre">20</tspan></tspan></tspan></text>
 <text class="SVGTextShape"><tspan class="TextParagraph" font-family="Liberation Sans, sans-serif" font-size="353px" font-weight="400"><tspan class="TextPosition" x="1538" y="7964"><tspan fill="rgb(0,0,0)" stroke="none" style="white-space: pre">30</tspan></tspan></tspan></text>
 <text class="SVGTextShape"><tspan class="TextParagraph" font-family="Liberation Sans, sans-serif" font-size="353px" font-weight="400"><tspan class="TextPosition" x="1538" y="6937"><tspan fill="rgb(0,0,0)" stroke="none" style="white-space: pre">40</tspan></tspan></tspan></text>
 <text class="SVGTextShape"><tspan class="TextParagraph" font-family="Liberation Sans, sans-serif" font-size="353px" font-weight="400"><tspan class="TextPosition" x="1538" y="5910"><tspan fill="rgb(0,0,0)" stroke="none" style="white-space: pre">50</tspan></tspan></tspan></text>
 <text class="SVGTextShape"><tspan class="TextParagraph" font-family="Liberation Sans, sans-serif" font-size="353px" font-weight="400"><tspan class="TextPosition" x="1538" y="4883"><tspan fill="rgb(0,0,0)" stroke="none" style="white-space: pre">60</tspan></tspan></tspan></text>
 <text class="SVGTextShape"><tspan class="TextParagraph" font-family="Liberation Sans, sans-serif" font-size="353px" font-weight="400"><tspan class="TextPosition" x="1538" y="3856"><tspan fill="rgb(0,0,0)" stroke="none" style="white-space: pre">70</tspan></tspan></tspan></text>
 <text class="SVGTextShape"><tspan class="TextParagraph" font-family="Liberation Sans, sans-serif" font-size="353px" font-weight="400"><tspan class="TextPosition" x="1538" y="2829"><tspan fill="rgb(0,0,0)" stroke="none" style="white-space: pre">80</tspan></tspan></tspan></text>
 <text class="SVGTextShape"><tspan class="TextParagraph" font-family="Liberation Sans, sans-serif" font-size="353px" font-weight="400"><tspan class="TextPosition" x="1538" y="1802"><tspan fill="rgb(0,0,0)" stroke="none" style="white-space: pre">90</tspan></tspan></tspan></text>
 <text class="SVGTextShape"><tspan class="TextParagraph" font-family="Liberation Sans, sans-serif" font-size="459px" font-weight="400"><tspan class="TextPosition" x="10486" y="964"><tspan fill="rgb(0,0,0)" stroke="none" style="white-space: pre">Δt</tspan></tspan></tspan></text>
 <path fill="rgb(217,217,217)" stroke="none" d="M 20160,7448 L 19125,7448 19125,6369 21194,6369 21194,7448 20160,7448 Z"/>
 <path fill="none" stroke="rgb(0,0,0)" stroke-linejoin="round" d="M 20160,7448 L 19125,7448 19125,6369 21194,6369 21194,7448 20160,7448 Z"/>
 <path fill="none" stroke="rgb(0,69,134)" stroke-width="80" stroke-linejoin="round" d="M 19241,6663 L 20041,6663"/>
 <path fill="none" stroke="rgb(255,66,14)" stroke-width="80" stroke-linejoin="round" d="M 19241,7152 L 20041,7152"/>
 <text class="SVGTextShape"><tspan class="TextParagraph" font-family="Liberation Sans, sans-serif" font-size="353px" font-weight="400"><tspan class="TextPosition" x="20141" y="6787"><tspan fill="rgb(0,0,0)" stroke="none" style="white-space: pre">actual</tspan></tspan></tspan></text>
 <text class="SVGTextShape"><tspan class="TextParagraph" font-family="Liberation Sans, sans-serif" font-size="353px" font-weight="400"><tspan class="TextPosition" x="20141" y="7276"><tspan fill="rgb(0,0,0)" stroke="none" style="white-space: pre">fitted</tspan></tspan></tspan></text>
 <text class="SVGTextShape"><tspan class="TextParagraph" font-family="Liberation Sans, sans-serif" font-size="318px" font-weight="400"><tspan class="TextPosition" x="9720" y="13242"><tspan fill="rgb(0,0,0)" stroke="none" style="white-space: pre">Year</tspan></tspan></tspan></text>
 <text class="SVGTextShape" transform="rotate(-90 819 7926)"><tspan class="TextParagraph" font-family="Liberation Sans, sans-serif" font-size="318px" font-weight="400"><tspan class="TextPosition" x="819" y="7926"><tspan fill="rgb(0,0,0)" stroke="none" style="white-space: pre">Δt (seconds)</tspan></tspan></tspan></text>
</svg>